<?xml version="1.0" encoding="UTF-8" standalone="no"?>
<svg
   width="232.79424"
   height="129.7394"
   viewBox="0 0 232.79424 129.7394"
   fill="none"
   version="1.1"
   id="svg6"
   sodipodi:docname="demo-sign.svg"
   inkscape:version="1.1 (ce6663b3b7, 2021-05-25)"
   xmlns:inkscape="http://www.inkscape.org/namespaces/inkscape"
   xmlns:sodipodi="http://sodipodi.sourceforge.net/DTD/sodipodi-0.dtd"
   xmlns="http://www.w3.org/2000/svg"
   xmlns:svg="http://www.w3.org/2000/svg">
  <defs
     id="defs10" />
  <sodipodi:namedview
     id="namedview8"
     pagecolor="#ffffff"
     bordercolor="#666666"
     borderopacity="1.0"
     inkscape:pageshadow="2"
     inkscape:pageopacity="0.0"
     inkscape:pagecheckerboard="0"
     showgrid="false"
     fit-margin-top="0"
     fit-margin-left="0"
     fit-margin-right="0"
     fit-margin-bottom="0"
     inkscape:zoom="2.2460064"
     inkscape:cx="179.42959"
     inkscape:cy="85.707681"
     inkscape:window-width="1920"
     inkscape:window-height="1013"
     inkscape:window-x="0"
     inkscape:window-y="30"
     inkscape:window-maximized="1"
     inkscape:current-layer="svg6" />
  <path
     d="m 174.85712,4.9272995 c -2.012,3.1529 -3.964,6.3357995 -5.825,9.5787995 -1.862,3.243 -3.664,6.5161 -5.375,9.8191 -2.583,4.9246 -5.045,9.9092 -7.417,14.9238 -0.721,1.081 -1.441,2.162 -2.192,3.213 -1.832,2.6424 -3.754,5.2248 -5.705,7.7771 0.03,-0.03 0.03,-0.03 0.06,-0.06 -0.03,0.03 -0.06,0.0901 -0.09,0.1201 0,0.03 -0.03,0.03 -0.061,0.0601 0,0 0,-0.0301 0.031,-0.0301 -5.315,6.8463 -11.111,13.3924 -17.477,19.2778 0,-0.06 0.03,-0.1501 0.03,-0.2102 0.121,-1.0509 0.241,-2.1019 0.361,-3.1829 0.15,-1.081 0.33,-2.132 0.69,-3.1829 0.12,-0.3604 -0.06,-0.7808 -0.39,-0.991 -0.3,-0.1801 -0.811,-0.1801 -1.051,0.1502 -1.051,1.3512 -2.342,2.4623 -3.633,3.5733 -0.631,0.5405 -1.261,1.0509 -1.892,1.5914 0.06,-0.3903 0.12,-0.8107 0.18,-1.2011 0.03,-0.3303 0.03,-0.6606 -0.03,-0.9609 -0.03,-0.2101 -0.06,-0.4203 -0.12,-0.6305 -0.06,-0.2102 -0.15,-0.3904 -0.24,-0.6006 -0.18,-0.4504 -0.901,-0.6005 -1.291,-0.3303 -2.162,1.5615 -4.595,2.7025 -6.817,4.1739 0.03,-0.1802 0.03,-0.3604 0.03,-0.5105 0.03,-0.4504 0.03,-0.8708 -0.03,-1.3212 -0.03,-0.2703 -0.09,-0.5405 -0.15,-0.8108 -0.06,-0.2702 -0.18,-0.5104 -0.3,-0.7507 -0.12,-0.2402 -0.391,-0.4204 -0.631,-0.4804 -0.36,-0.0901 -0.78,0 -1.021,0.2702 -3.243,3.243 -6.966,5.9455 -10.449,8.9183 0.09,-1.021 0.15,-2.0419 0.27,-3.0629 0.06,-0.2102 0.06,-0.4203 0,-0.6305 -0.09,-0.3003 -0.3,-0.5706 -0.571,-0.7207 -0.48,-0.2703 -1.111,-0.2102 -1.501,0.1802 -2.823001,2.7625 -5.495001,5.7052 -8.618001,8.1375 -1.501,1.1408 -3.063,2.1318 -4.804,2.8828 -0.571,0.24 -1.141,0.42 -1.742,0.6 1.591,-4.9542 3.093,-9.9088 4.684,-14.8633 0.18,-0.6006 -0.12,-1.2612 -0.63,-1.5615 -0.541,-0.3303 -1.231,-0.2102 -1.682,0.2102 -3.843,3.6934 -7.447,7.6271 -11.14,11.4706 -2.522,2.612 -5.105,5.165 -7.837,7.597 2.192,-3.273 4.354,-6.546 6.456,-9.9091 2.972,-4.7744 5.795,-9.6389 8.107,-14.7436 2.222,-4.8946 4.024,-9.9692 4.865,-15.2842 0.06,-0.2702 0.06,-0.5405 0,-0.8107 -0.06,-0.2703 -0.211,-0.4804 -0.391,-0.6906 -0.48,-0.4805 -1.261,-0.5706 -1.861,-0.2403 -1.892,1.081 -3.634,2.4623 -5.225,3.9637 -1.111,1.051 -2.162,2.132 -3.153,3.273 0.12,-0.3303 0.21,-0.6606 0.33,-1.0209 1.742,-5.4651 2.823,-11.1403 3.183,-16.8756 -1.471,4.4741 -3.123,8.8882 -4.804,13.2722 -0.841,2.162 -1.682,4.294 -2.493,6.456 -0.81,2.102 -1.651,4.2039 -2.522,6.2758 v -0.03 c 0,0 0,0.03 -0.03,0.03 -0.03,0.0901 -0.09,0.2102 -0.12,0.3003 0.03,-0.0601 0.03,-0.0901 0.06,-0.1502 -0.09,0.2102 -0.18,0.3904 -0.27,0.6006 -1.652,2.5223 -3.183,5.1347 -4.625,7.7772 -2.582,4.7444 -4.864,9.6689 -6.846,14.7134 -0.841,2.192 -1.6215,4.384 -2.3121,6.636 -0.4804,1.562 -0.9008,3.123 -1.2011,4.685 -0.6906,1.741 -1.3513,3.483 -1.9818,5.254 -1.1711,3.274001 -2.1921,6.577001 -3.1229,9.910001 -0.1802,0.66 0.1201,1.381 0.7206,1.741 0.3604,0.21 0.7808,0.27 1.1711,0.15 0.3604,-0.09 0.7507,-0.36 0.9309,-0.72 2.9127,-5.916 6.4263,-11.471001 10.0293,-16.966001 0.961,-0.661 1.892,-1.321 2.823,-2.042 2.762,-2.102 5.344,-4.414 7.837,-6.816 3.963,-3.844 7.687,-7.8974 11.5,-11.8911 -1.171,3.8736 -2.402,7.7171 -3.573,11.5911 -0.15,0.45 0,0.96 0.33,1.291 0.151,0.15 0.361,0.27 0.571,0.33 0.24,0.06 0.48,0.06 0.691,0 1.861,-0.24 3.603,-0.841 5.284,-1.681 1.712,-0.841 3.273,-1.922 4.745,-3.123 2.192,-1.742 4.174,-3.7238 6.126001,-5.7356 -0.031,0.8107 -0.091,1.6515 -0.181,2.4622 0,0.0601 -0.03,0.1502 -0.03,0.2102 -0.06,0.2102 -0.06,0.4204 0,0.6006 0.09,0.3003 0.271,0.5405 0.541,0.6906 0.45,0.2703 1.021,0.1802 1.381,-0.1802 3.513,-3.4531 7.567,-6.2758 11.14,-9.6389 -0.03,0.9009 -0.15,1.8317 -0.12,2.7326 0,0.3603 0.18,0.6906 0.481,0.8708 0.42,0.2402 0.871,0.1501 1.201,-0.1502 0.15,-0.1201 0.3,-0.2402 0.45,-0.3903 2.072,-1.5615 4.444,-2.7025 6.606,-4.1439 0,0.2102 -0.03,0.4204 -0.06,0.6607 -0.06,0.4804 -0.15,0.9608 -0.21,1.4713 -0.06,0.5405 -0.03,1.081 0.09,1.6215 0.12,0.6306 1.081,0.9008 1.502,0.3904 0.99,-1.1111 2.192,-2.0719 3.333,-3.0328 0.57,-0.4805 1.111,-0.9609 1.651,-1.4414 -0.18,1.3813 -0.3,2.7626 -0.48,4.1439 -0.09,0.6305 -0.18,1.2311 -0.361,1.8617 -0.09,0.3603 0.06,0.7807 0.391,0.9609 0.36,0.2102 0.75,0.1201 1.051,-0.1201 5.134,-4.5643 9.909,-9.5188 14.353,-14.7737 2.672,-3.1529 5.225,-6.3659 7.687,-9.6989 -4.985,10.9901 -9.759,22.0703 -14.744,33.0606 -0.24,-0.06 -0.48,-0.15 -0.72,-0.24 -0.721,-0.331 -1.412,-0.751 -2.042,-1.231 -1.201,-0.961 -2.252,-2.1024 -3.183,-3.3035 -0.781,-1.051 -1.501,-2.132 -2.192,-3.243 -0.24,-0.3904 -0.571,-0.6606 -1.021,-0.7807 -0.601,-0.1802 -1.171,0.03 -1.652,0.4204 -1.861,1.6215 -3.423,3.5733 -4.804,5.6148 -1.471,2.162 -2.642,4.535 -3.693,6.937 -2.252,5.285 -3.724,10.9 -4.475,16.575001 -0.54,4.024 -0.78,8.078 -0.57,12.161 0.09,1.892 0.3,3.784 0.661,5.676 0.3,1.621 0.75,3.213 1.291,4.774 0.15,0.45 0.45,0.781 0.931,0.931 0.57,0.15 1.171,-0.09 1.471,-0.601 1.922,-3.183 3.783,-6.396 5.615,-9.639 1.802,-3.243 3.573,-6.546 5.255,-9.849 3.393,-6.636001 6.576,-13.392001 9.669,-20.178001 0.06,-0.151 0.15,-0.301 0.21,-0.451 0.511,0.06 0.991,0.06 1.502,0.03 2.342,-0.15 4.504,-1.111 6.455,-2.372 2.223,-1.441 4.204,-3.273 6.096,-5.1347 2.252,-2.2221 4.414,-4.5943 6.636,-6.8463 -0.09,1.141 -0.15,2.2821 -0.3,3.3931 -0.06,0.4204 -0.15,0.8408 -0.24,1.2612 -0.12,0.5705 0,1.141 0.42,1.5614 0.391,0.3904 1.051,0.6006 1.562,0.4204 2.132,-0.7807 4.143,-1.8317 6.035,-3.1229 2.012,-1.3512 3.814,-2.9727 5.435,-4.7143 3.303,-3.4833 5.976,-7.537 8.588,-11.5307 -4.414,3.9036 -8.558,8.1375 -13.212,11.7408 -1.051,0.8108 -2.132,1.5915 -3.243,2.2822 -0.661,0.4203 -1.321,0.8107 -2.012,1.141 0.03,-0.3303 0.06,-0.6306 0.09,-0.9609 0.12,-1.2611 0.18,-2.5223 0.33,-3.7835 0.091,-0.6005 0.211,-1.2011 0.361,-1.7716 0.21,-0.7207 -0.12,-1.4714 -0.751,-1.8617 -0.661,-0.3904 -1.441,-0.2402 -1.982,0.2702 -2.552,2.3422 -4.924,4.8645 -7.327,7.3568 -2.162,2.2521 -4.354,4.5342 -6.816,6.4555 -1.141,0.871 -2.342,1.652 -3.633,2.223 -0.691,0.27 -1.411,0.48 -2.132,0.6 -0.12,0 -0.24,0.03 -0.39,0.03 5.555,-12.4314 10.84,-24.9529 16.515,-37.3244 0.78,-1.7115 1.591,-3.4531 2.402,-5.1647 6.906,-10.4497 12.942,-21.5599 17.806,-33.0905995 l 0.091,-0.2102 c 0.03,-0.1501 0.03,-0.3303 0,-0.4804 -0.061,-0.2102 -0.211,-0.4204 -0.421,-0.5405 -0.15,-0.0901 -0.3,-0.1201 -0.45,-0.1201 -0.21,0.1201 -0.511,0.2702 -0.691,0.5705 z M 86.125119,46.395599 c -0.751,3.0328 -1.772,6.0055 -2.973,8.8882 -2.642,6.2458 -6.065,12.1312 -9.699,17.8365 -3.423,5.4054 -7.056,10.6894 -10.599,16.0644 -0.481,0.301 -0.931,0.601 -1.412,0.901 0.331,-0.811 0.661,-1.621 1.021,-2.432 -0.03,0.06 -0.06,0.12 -0.06,0.18 2.823,-6.666 5.916,-13.182 8.888,-19.7581 1.262,-2.7926 2.523,-5.5851 3.724,-8.3777 1.261,-1.9518 2.612,-3.8736 4.024,-5.7053 2.071,-2.7625 4.384,-5.405 7.086,-7.597 z m -2.913,8.7681 c 0,0.03 -0.03,0.06 -0.03,0.0901 0,-0.0301 0,-0.0601 0.03,-0.0901 z m 47.955001,11.1102 c 0,0.0301 0,0.0901 -0.03,0.1202 0.03,-0.0301 0.03,-0.0601 0.03,-0.1202 z m -8.018,0.2703 c 0,0.03 0,0.0601 -0.03,0.1201 0.03,-0.06 0.03,-0.0901 0.03,-0.1201 z m -18.857,3.5433 c 0,0.06 0,0.1201 -0.03,0.1801 0,-0.06 0.03,-0.1201 0.03,-0.1801 z m 23.211,6.546 c 0.691,1.021 1.412,1.9822 2.222,2.9432 0.991,1.171 2.102,2.192 3.333,3.122 0.901,0.661 1.922,1.202 2.973,1.562 -0.18,0.42 -0.39,0.841 -0.57,1.261 -3.003,6.486 -6.126,12.942 -9.429,19.278001 -2.853,5.465 -5.855,10.87 -9.158,16.095 -0.151,-0.841 -0.271,-1.652 -0.391,-2.493 -0.66,-5.044 -0.51,-10.149 0.15,-15.164 0.751,-5.495001 2.132,-10.930001 4.264,-16.034001 1.291,-2.973 2.853,-5.856 4.805,-8.468 0.54,-0.751 1.141,-1.4416 1.801,-2.1022 z m -6.696,10.7202 c 0,0.03 -0.03,0.06 -0.03,0.09 0,-0.03 0,-0.06 0.03,-0.09 z m -48.014001,-30.0881 c 0.03,-0.06 0.06,-0.1201 0.06,-0.1801 -0.03,0.06 -0.06,0.1201 -0.06,0.1801 z m 75.490001,-6.9063 0.03,-0.0301 c 0.03,-0.03 0.03,-0.03 0.03,-0.06 0,0.03 -0.03,0.06 -0.06,0.0901 z"
     fill="#0b2034"
     id="path4" />
</svg>
