<?xml version="1.0" encoding="UTF-8" standalone="no"?>
<svg
   id="Layer_1"
   data-name="Layer 1"
   viewBox="0 0 55 55"
   version="1.1"
   sodipodi:docname="dry_nedling.svg"
   inkscape:version="1.1 (ce6663b3b7, 2021-05-25)"
   xmlns:inkscape="http://www.inkscape.org/namespaces/inkscape"
   xmlns:sodipodi="http://sodipodi.sourceforge.net/DTD/sodipodi-0.dtd"
   xmlns="http://www.w3.org/2000/svg"
   xmlns:svg="http://www.w3.org/2000/svg">
  <sodipodi:namedview
     id="namedview17"
     pagecolor="#ffffff"
     bordercolor="#666666"
     borderopacity="1.0"
     inkscape:pageshadow="2"
     inkscape:pageopacity="0.0"
     inkscape:pagecheckerboard="0"
     showgrid="false"
     inkscape:zoom="5.6568545"
     inkscape:cx="53.298171"
     inkscape:cy="52.414288"
     inkscape:window-width="1920"
     inkscape:window-height="1013"
     inkscape:window-x="0"
     inkscape:window-y="30"
     inkscape:window-maximized="1"
     inkscape:current-layer="Layer_1" />
  <defs
     id="defs4">
    <style
       id="style2">.cls-1{fill:#00215b;stroke:#00215b;stroke-miterlimit:10;stroke-width:0.5px;}</style>
  </defs>
  <path
     class="cls-1"
     d="M 38.435873,47.833764 A 27.292906,27.292906 0 0 1 27.769915,45.663811 L 27.24402,45.440434 a 0.65257382,0.65257382 0 0 1 0.510578,-1.201133 l 0.525894,0.223377 a 26.039439,26.039439 0 0 0 20.813681,-0.218272 0.65243101,0.65243101 0 0 1 0.536106,1.189645 27.292906,27.292906 0 0 1 -11.194406,2.399713 z"
     id="path6"
     style="fill:#0dcb07;fill-opacity:1;stroke:#0dcb07;stroke-opacity:1" />
  <path
     class="cls-1"
     d="M 27.499309,45.497874 A 0.6663033,0.6663033 0 0 1 27.24402,45.445539 L 26.716849,45.222162 A 26.050927,26.050927 0 0 0 5.9108267,45.439157 0.65243103,0.65243103 0 1 1 5.3747206,44.249512 27.358005,27.358005 0 0 1 27.235085,44.021029 l 0.525895,0.223377 a 0.65353887,0.65353887 0 0 1 -0.255289,1.253468 z"
     id="path8"
     style="fill:#0dcb07;fill-opacity:1;stroke:#0dcb07;stroke-opacity:1" />
  <path
     class="cls-1"
     d="M 27.481439,5.8004931 A 2.7213767,2.7213767 0 0 0 24.762615,8.5180405 V 26.388244 a 2.7175474,2.7175474 0 0 0 2.084431,2.643514 v 17.921261 a 0.6522625,0.6522625 0 0 0 1.304525,0 V 29.031758 a 2.7175474,2.7175474 0 0 0 2.084432,-2.634579 V 8.5269756 A 2.7290354,2.7290354 0 0 0 27.481439,5.8004931 Z M 28.930202,26.38952 a 1.414299,1.414299 0 0 1 -1.413023,1.413023 h -0.03574 A 1.414299,1.414299 0 0 1 26.068416,26.38952 V 8.5193169 a 1.430893,1.430893 0 0 1 2.861786,0 z"
     id="path10"
     style="fill:#181443;fill-opacity:1;stroke:#181443;stroke-opacity:1" />
  <path
     class="cls-1"
     d="m 13.841368,26.854146 a 2.6996772,2.6996772 0 0 0 0.448031,-2.033374 L 11.160837,7.2237272 A 2.7290354,2.7290354 0 0 0 7.979941,5.0346273 2.7188238,2.7188238 0 0 0 5.7755237,8.1861653 L 8.89898,25.784486 a 2.7175474,2.7175474 0 0 0 2.517146,2.226117 l 3.051975,17.196242 a 0.65353887,0.65353887 0 0 0 0.638222,0.538659 0.69821438,0.69821438 0 0 0 0.11488,-0.01021 0.65353887,0.65353887 0 0 0 0.528447,-0.756931 L 12.692569,27.779567 a 2.7035065,2.7035065 0 0 0 1.148799,-0.925421 z M 10.186911,25.549621 7.0609019,7.9525762 A 1.4040874,1.4040874 0 0 1 7.294491,6.8956813 1.4245105,1.4245105 0 0 1 8.2416118,6.307241 1.4717389,1.4717389 0 0 1 8.4879653,6.285541 1.4168518,1.4168518 0 0 1 9.8792883,7.45221 l 3.1234567,17.597045 a 1.4117461,1.4117461 0 0 1 -1.148799,1.637677 l -0.03574,0.0077 a 1.4219576,1.4219576 0 0 1 -1.633847,-1.144969 z"
     id="path12"
     style="fill:#181443;fill-opacity:1;stroke:#181443;stroke-opacity:1" />
  <path
     class="cls-1"
     d="m 45.6899,9.2009375 a 2.7443527,2.7443527 0 0 0 -4.864525,1.3798355 l -2.030821,17.755323 a 2.70223,2.70223 0 0 0 1.771703,2.855403 l -2.070391,18.096134 a 0.65226243,0.65226243 0 0 0 0.5744,0.722467 0.74416633,0.74416633 0 0 0 0.07531,0 0.65226243,0.65226243 0 0 0 0.647156,-0.578229 l 2.070391,-18.099963 a 2.7149945,2.7149945 0 0 0 2.369079,-2.378013 L 46.263022,11.2024 A 2.7073358,2.7073358 0 0 0 45.6899,9.2009375 Z M 42.935335,28.809656 a 1.4117461,1.4117461 0 0 1 -1.563642,1.243256 h -0.03574 A 1.4117461,1.4117461 0 0 1 40.09142,28.487993 l 2.030821,-17.755324 a 1.4181283,1.4181283 0 0 1 1.424511,-1.2496375 1.6070419,1.6070419 0 0 1 0.174872,0.010212 1.414299,1.414299 0 0 1 1.244532,1.5649185 z"
     id="path14"
     style="fill:#181443;fill-opacity:1;stroke:#181443;stroke-opacity:1" />
</svg>
