<?xml version="1.0" encoding="UTF-8" standalone="no"?>
<svg
   viewBox="0 0 50 50"
   version="1.1"
   id="svg4"
   sodipodi:docname="kinesiology-icon.svg"
   inkscape:version="1.1 (ce6663b3b7, 2021-05-25)"
   xmlns:inkscape="http://www.inkscape.org/namespaces/inkscape"
   xmlns:sodipodi="http://sodipodi.sourceforge.net/DTD/sodipodi-0.dtd"
   xmlns="http://www.w3.org/2000/svg"
   xmlns:svg="http://www.w3.org/2000/svg">
  <defs
     id="defs8" />
  <sodipodi:namedview
     id="namedview6"
     pagecolor="#ffffff"
     bordercolor="#666666"
     borderopacity="1.0"
     inkscape:pageshadow="2"
     inkscape:pageopacity="0.0"
     inkscape:pagecheckerboard="0"
     showgrid="false"
     inkscape:zoom="8.32"
     inkscape:cx="21.454327"
     inkscape:cy="19.411058"
     inkscape:window-width="1920"
     inkscape:window-height="1013"
     inkscape:window-x="0"
     inkscape:window-y="30"
     inkscape:window-maximized="1"
     inkscape:current-layer="svg4" />
  <path
     style="line-height:normal;text-indent:0;text-align:start;text-decoration-line:none;text-decoration-style:solid;text-decoration-color:#000000;text-transform:none;isolation:auto;mix-blend-mode:normal;fill:#181443;fill-opacity:1"
     d="m 24.998,16.998047 c -3.750805,0 -8.638672,1.050781 -8.638672,1.050781 -0.162886,0.0344 -0.314608,0.108919 -0.441406,0.216797 l -0.01953,0.01758 c -1.055358,0.318676 -1.886028,1.021964 -2.373047,1.992188 h -0.002 L 13.5,20.296875 c -0.122422,0.103387 -0.21821,0.234677 -0.279297,0.382813 l -3.8046874,9.179687 c -0.05208,0.125609 -0.077999,0.260519 -0.076172,0.396484 C 9.1805678,30.649428 9,31.037824 9,31.5 c 0,1.921188 1.578812,3.5 3.5,3.5 0.317215,0 0.600668,-0.05127 0.84375,-0.111328 L 15.5625,34.34375 c -0.08652,0.09697 -0.131045,0.167251 -0.238281,0.275391 -0.527522,0.531963 -1.277132,1.166093 -2.03125,1.759765 -1.508236,1.187345 -3.029297,2.21875 -3.029297,2.21875 -0.133961,0.09083 -0.243878,0.212806 -0.3203126,0.355469 C 8.8182015,39.766803 8,41.004814 8,42.5 8,44.973438 10.026562,47 12.5,47 h 8 17 c 2.473438,0 4.5,-2.026562 4.5,-4.5 0,-1.508303 -0.830982,-2.754225 -1.972656,-3.566406 -0.07327,-0.13738 -0.1776,-0.255757 -0.304688,-0.345703 0,0 -1.515369,-1.069005 -3.019531,-2.285157 -0.752081,-0.608076 -1.500827,-1.255815 -2.029297,-1.792968 -0.05333,-0.05421 -0.07058,-0.08502 -0.11914,-0.136719 l 2.101562,0.515625 C 36.899332,34.948729 37.182785,35 37.5,35 c 1.921188,0 3.5,-1.578812 3.5,-3.5 0,-0.463345 -0.182263,-0.854508 -0.34375,-1.25 0.0017,-0.133863 -0.02358,-0.266697 -0.07422,-0.390625 l -3.804687,-9.179687 c -0.06109,-0.148136 -0.156875,-0.279426 -0.279297,-0.382813 l -0.02539,-0.02148 C 35.985844,19.30506 35.154717,18.6017 34.099609,18.283207 l -0.01953,-0.01758 c -0.126798,-0.107878 -0.27852,-0.182397 -0.441406,-0.216797 0,0 -4.88982,-1.050781 -8.640625,-1.050781 z m 0,2 c 3.306383,0 7.961913,0.956241 8.126953,0.990234 0.05711,0.02027 0.115947,0.03531 0.175781,0.04492 0.746127,0.113556 1.345808,0.6308 1.582031,1.328125 0.05351,0.159093 0.146201,0.30216 0.269532,0.416016 l -0.128906,-0.107422 3.513671,8.478516 0.267579,-0.427735 c -0.196507,0.314825 -0.202523,0.712579 -0.01563,1.033203 C 38.926344,30.989513 39,31.23414 39,31.5 39,32.340812 38.340812,33 37.5,33 37.397937,33 37.279314,32.98303 37.134766,32.94727 h -0.002 L 33.269531,32 c -0.01037,-0.0028 -0.02079,-0.0054 -0.03125,-0.0078 l -8,-1.962891 c -0.03221,-0.0081 -0.0648,-0.01465 -0.09766,-0.01953 -0.03302,-0.0049 -0.06626,-0.0082 -0.09961,-0.0098 -0.03321,-0.001 -0.06646,-3.52e-4 -0.09961,0.002 -0.0606,0.0036 -0.120745,0.01279 -0.179687,0.02734 l -8,1.962891 -3.894531,0.955078 h -0.002 C 12.720732,32.98303 12.602063,33 12.5,33 11.659188,33 11,32.340812 11,31.5 c 0,-0.26586 0.07393,-0.512649 0.210938,-0.75 0.184732,-0.320003 0.177973,-0.715789 -0.01758,-1.029297 l 0.267579,0.427735 3.513671,-8.478516 -0.162109,0.136719 c 0.139433,-0.117434 0.244116,-0.270744 0.302734,-0.44336 0.237315,-0.698575 0.835993,-1.216536 1.582032,-1.330078 0.06387,-0.0095 0.12666,-0.02523 0.1875,-0.04687 0.002,-6.45e-4 0.0039,-0.0013 0.0059,-0.002 0.19338,-0.03979 4.811499,-0.986328 8.107422,-0.986328 z M 24.998,20 c -0.541667,0 -0.893649,0.300614 -1.115235,0.546875 -0.221585,0.246261 -0.37073,0.50502 -0.511718,0.787109 -0.281977,0.564179 -0.50892,1.22461 -0.705078,1.878907 -0.304517,1.015731 -0.417955,1.614949 -0.501954,2.011718 l -5.480468,1.826172 c -1.266009,0.421682 -0.633197,2.32012 0.632812,1.898438 l 6,-2 c 0.340677,-0.113819 0.594153,-0.401589 0.664063,-0.753907 0,0 0.244378,-1.216795 0.601562,-2.408203 0.129131,-0.430722 0.276223,-0.781995 0.417969,-1.126953 0.141873,0.344951 0.286731,0.696291 0.416016,1.126953 0.357666,1.191427 0.603515,2.410157 0.603515,2.410157 0.07054,0.351574 0.32391,0.638476 0.664063,0.751953 l 6,2 c 1.265817,0.422259 1.898629,-1.476179 0.632812,-1.898438 L 27.835938,25.224609 C 27.751928,24.82846 27.637181,24.22938 27.332031,23.212891 27.135614,22.558604 26.909132,21.898117 26.626953,21.333984 26.485864,21.051918 26.336859,20.791117 26.115234,20.544922 25.893609,20.298727 25.539714,20 24.998047,20 Z M 25,32.029297 l 7,1.71875 v 0.04883 c 0,0.560572 0.223269,0.864464 0.443359,1.179687 0.220091,0.315225 0.492642,0.618374 0.804688,0.935547 0.624092,0.634347 1.412597,1.310889 2.197265,1.945313 1.483934,1.199796 2.799168,2.126091 2.955079,2.236328 0.07673,0.08667 0.167931,0.159368 0.269531,0.214844 C 39.463532,40.733869 40,41.541745 40,42.5 40,43.892562 38.892562,45 37.5,45 h -17 C 19.659188,45 19,44.340812 19,43.5 c 0,-0.740418 0.523198,-1.340123 1.210938,-1.472656 0.0039,-6.28e-4 0.0078,-0.0013 0.01172,-0.002 l 9.978516,-2.044922 c 1.231578,-0.225009 1.01572,-2.050813 -0.234375,-1.982422 -0.0565,0.0024 -0.112687,0.0096 -0.167969,0.02148 l -9.966797,2.044922 C 18.21577,40.375924 17,41.806418 17,43.5 c 0,0.53801 0.134994,1.042844 0.355469,1.5 H 12.5 C 11.107438,45 10,43.892562 10,42.5 c 0,-0.949378 0.527004,-1.751793 1.308594,-2.179688 0.09223,-0.05037 0.175934,-0.114968 0.248047,-0.191406 0.157084,-0.106701 1.48095,-1.001865 2.974609,-2.177734 0.789882,-0.621828 1.582413,-1.288042 2.212891,-1.923828 0.315239,-0.317894 0.591671,-0.626013 0.814453,-0.949219 C 17.781375,34.754919 18,34.428379 18,33.880859 v -0.132812 z"
     font-weight="400"
     font-family="sans-serif"
     white-space="normal"
     overflow="visible"
     id="path2"
     sodipodi:nodetypes="scccccccccssccssccsscssccssccssccccccccssscccccccsscccccsccccccsscccccccccssssscccccscscccccssssccssssccssssccccccscssccssssccscs" />
  <path
     d="m 24.829784,2.2938462 c -3.301864,0 -6,2.6981361 -6,6.0000002 0,3.3018636 2.698136,5.9999996 6,5.9999996 3.301864,0 6,-2.698136 6,-5.9999996 0,-3.3018641 -2.698136,-6.0000002 -6,-6.0000002 z m 0,2 c 2.220984,0 4,1.7790162 4,4.0000002 0,2.2209836 -1.779016,3.9999996 -4,3.9999996 -2.220984,0 -4,-1.779016 -4,-3.9999996 0,-2.220984 1.779016,-4.0000002 4,-4.0000002 z"
     style="font-weight:400;line-height:normal;font-family:sans-serif;text-indent:0;text-align:start;text-decoration-line:none;text-decoration-style:solid;text-decoration-color:#000000;text-transform:none;white-space:normal;overflow:visible;isolation:auto;mix-blend-mode:normal;fill:#0dcb07;fill-opacity:1"
     id="path1271" />
</svg>
