<?xml version="1.0" encoding="UTF-8" standalone="no"?>
<svg
   viewBox="0 0 50 50"
   enable-background="new 0 0 50 50"
   version="1.1"
   id="svg4"
   sodipodi:docname="physiotherapy-icon.svg"
   inkscape:version="1.1 (ce6663b3b7, 2021-05-25)"
   xmlns:inkscape="http://www.inkscape.org/namespaces/inkscape"
   xmlns:sodipodi="http://sodipodi.sourceforge.net/DTD/sodipodi-0.dtd"
   xmlns="http://www.w3.org/2000/svg"
   xmlns:svg="http://www.w3.org/2000/svg">
  <defs
     id="defs8" />
  <sodipodi:namedview
     id="namedview6"
     pagecolor="#ffffff"
     bordercolor="#666666"
     borderopacity="1.0"
     inkscape:pageshadow="2"
     inkscape:pageopacity="0.0"
     inkscape:pagecheckerboard="0"
     showgrid="false"
     inkscape:zoom="8.32"
     inkscape:cx="35.276442"
     inkscape:cy="24.338942"
     inkscape:window-width="1920"
     inkscape:window-height="1013"
     inkscape:window-x="0"
     inkscape:window-y="30"
     inkscape:window-maximized="1"
     inkscape:current-layer="svg4" />
  <path
     style="line-height:normal;-inkscape-font-specification:'Bitstream Vera Sans';text-indent:0;text-align:start;text-transform:none;fill:#181443;fill-opacity:1"
     d="m 25,13 c -2.8,0 -5,2.2 -5,5 l 2,14 h 2 l -0.5,-3.5 c 0.150139,0.120252 0.303562,0.240507 0.46875,0.34375 0.01018,0.01065 0.0206,0.02107 0.03125,0.03125 l 5.53125,3.25 h 0.03125 c 0.01098,0.0072 0.02018,0.02422 0.03125,0.03125 0.41527,0.263619 0.907414,0.4375 1.40625,0.4375 0.933333,0 1.866823,-0.487735 2.4375,-1.34375 0.01114,-0.02046 0.02157,-0.04131 0.03125,-0.0625 C 34.048187,30.144515 33.886609,28.88046 33.15625,28 H 43 c 0.6,0 1,0.4 1,1 0,0.6 -0.4,1 -1,1 h -8.09375 c 0,0.6 -0.2,1.09375 -0.5,1.59375 -0.1,0.1 -0.21875,0.20625 -0.21875,0.40625 H 43 c 1.7,0 3,-1.3 3,-3 0,-1.7 -1.3,-3 -3,-3 H 30.15625 l -3.03125,-1.78125 -1.15625,-4 c -0.374794,-1.292041 -2.312294,-0.729541 -1.9375,0.5625 l 1.3125,4.40625 c 0.07182,0.234858 0.227547,0.435079 0.4375,0.5625 l 5.625,3.3125 c 0.427957,0.237754 0.539278,0.686484 0.3125,1.125 -0.217307,0.284323 -0.472871,0.40625 -0.71875,0.40625 -0.07778,0 -0.171758,-0.01034 -0.34375,-0.125 -0.02046,-0.01114 -0.04131,-0.02156 -0.0625,-0.03125 l -5.5625,-3.28125 C 25.019181,27.148707 25.011969,27.132755 25,27.125 24.432804,26.757518 23.97498,26.143689 23.75,25.46875 l -1.375,-5.3125 C 22.35129,20.04577 22.30902,19.940107 22.25,19.84375 L 22,18 c 0,-1.7 1.3,-3 3,-3 h 7.09375 c 1,0 1.9,0.5125 2.5,1.3125 l 6,8.6875 H 43 L 36.1875,15.1875 C 35.2875,13.7875 33.69375,13 32.09375,13 Z m 9.125,5.96875 C 34.01875,18.967188 33.9125,18.975 33.8125,19 c -0.4,0.1 -0.71875,0.5 -0.71875,1 v 5 H 35 V 23.3125 L 36.09375,25 H 38.5 l -3.59375,-5.59375 c -0.15,-0.3 -0.4625,-0.432813 -0.78125,-0.4375 z M 26.5,31.59375 25.5,33 H 16 c -2.8,0 -5,2.2 -5,5 0,2.8 2.2,5 5,5 H 27 46.90625 C 48.60625,43 50,41.60625 50,39.90625 c 0,-1.6 -1.30625,-2.9 -2.90625,-3 L 32.40625,36 33.6875,32.59375 c -0.7,0.6 -1.6,1 -2.5,1 l -1.09375,3 c -0.1,0.3 -0.10625,0.60625 0.09375,0.90625 0.2,0.3 0.5125,0.4 0.8125,0.5 l 16.09375,1 c 0.6,0 1,0.49375 1,1.09375 0,0.6 -0.49375,1.09375 -1.09375,1.09375 H 29.75 C 29.909721,40.822216 30,40.421269 30,40 30,38.354545 28.645455,37 27,37 H 17 v 2 h 10 c 0.554545,0 1,0.445455 1,1 0,0.554545 -0.445455,1 -1,1 v 0.1875 H 16 c -1.7,0 -3,-1.3 -3,-3 0,-1.7 1.3,-3 3,-3 h 10.09375 c 0.4,0 0.70625,-0.2 0.90625,-0.5 l 1.1875,-2.09375 z M 3,42 c -1.6454545,0 -3,1.354545 -3,3 v 4 h 2 v -4 c 0,-0.554545 0.4454545,-1 1,-1 h 5 c 0.2666667,0 0.5953376,0.166047 0.8125,0.4375 h 0.03125 l 1,1.1875 L 10.125,46 H 10.59375 48 v 3 h 2 V 46 C 50,45.477778 49.814531,44.939531 49.4375,44.5625 49.060469,44.185469 48.522222,44 48,44 H 11.0625 L 10.375,43.1875 c -0.0051,-0.0064 -0.0261,0.0063 -0.03125,0 C 9.7611395,42.470245 8.9251546,42 8,42 Z"
     overflow="visible"
     enable-background="accumulate"
     font-family="'Bitstream Vera Sans'"
     id="path2"
     sodipodi:nodetypes="scccccccccscccssscccsssccccccccsccccccccssccccsssssccccccsccssscsscccccsccsscssccssccsssscccssccsssccccccccssscccss" />
  <path
     d="m 27.644231,1.7716346 c -3.025721,0 -5.5,2.4742784 -5.5,5.5 0,3.0257214 2.474279,5.5000004 5.5,5.5000004 3.025721,0 5.5,-2.474279 5.5,-5.5000004 0,-3.0257216 -2.474279,-5.5 -5.5,-5.5 z m 0,2 c 1.944841,0 3.5,1.5551588 3.5,3.5 0,1.9448412 -1.555159,3.5000004 -3.5,3.5000004 -1.944841,0 -3.5,-1.5551592 -3.5,-3.5000004 0,-1.9448412 1.555159,-3.5 3.5,-3.5 z"
     style="line-height:normal;font-family:'Bitstream Vera Sans';-inkscape-font-specification:'Bitstream Vera Sans';text-indent:0;text-align:start;text-transform:none;overflow:visible;enable-background:accumulate;fill:#0dcb07;fill-opacity:1"
     id="path926" />
  <path
     d="m 5.8685201,28.624803 c -3.0257216,0 -5.50000004,2.474279 -5.50000004,5.5 0,3.025721 2.47427844,5.5 5.50000004,5.5 3.0257216,0 5.4999999,-2.474279 5.4999999,-5.5 0,-3.025721 -2.4742783,-5.5 -5.4999999,-5.5 z m 0,2 c 1.9448412,0 3.5,1.555159 3.5,3.5 0,1.944841 -1.5551588,3.5 -3.5,3.5 -1.9448412,0 -3.5,-1.555159 -3.5,-3.5 0,-1.944841 1.5551588,-3.5 3.5,-3.5 z"
     style="line-height:normal;font-family:'Bitstream Vera Sans';-inkscape-font-specification:'Bitstream Vera Sans';text-indent:0;text-align:start;text-transform:none;overflow:visible;enable-background:accumulate;fill:#0dcb07;fill-opacity:1"
     id="path1160" />
</svg>
